<svg xmlns="http://www.w3.org/2000/svg" width="131" height="38" viewBox="0 0 131 38">
  <path fill="#16315c" d="M11.666 11.238L8.683 23.361l-3.321-12.123h-3.41L6.75 28.5h3.692l4.636-17.262h-3.412zM18.89 11.238V28.5H22.3V11.238h-3.41zm11.258 0L27.166 23.361l-3.321-12.123h-3.41l4.803 17.262h3.692l4.636-17.262h-3.411zm11.264 0v17.262h9.723V25.4h-6.314v-5.617h5.811V16.89h-5.811v-5.652h6.314v-2.093h-9.723zm13.125 0V28.5h3.41V11.238h-3.41zm11.252 0c-4.743 0-8.583 3.864-8.583 8.631 0 4.767 3.84 8.631 8.583 8.631 4.743 0 8.583-3.864 8.583-8.631 0-4.767-3.84-8.631-8.583-8.631zm0 14.169c-2.859 0-5.174-2.48-5.174-5.538 0-3.058 2.315-5.538 5.174-5.538 2.859 0 5.174 2.48 5.174 5.538 0 3.058-2.315 5.538-5.174 5.538zm8.618-14.169v17.262h3.41V20.155h6.314v-2.094h-6.314v-6.823h-3.41zm13.126 0c-4.743 0-8.583 3.864-8.583 8.631 0 4.767 3.84 8.631 8.583 8.631 4.743 0 8.583-3.864 8.583-8.631 0-4.767-3.84-8.631-8.583-8.631zm0 14.169c-2.859 0-5.174-2.48-5.174-5.538 0-3.058 2.315-5.538 5.174-5.538 2.859 0 5.174 2.48 5.174 5.538 0 3.058-2.315 5.538-5.174 5.538zm13.125-14.169c-4.743 0-8.583 3.864-8.583 8.631 0 4.767 3.84 8.631 8.583 8.631 4.743 0 8.583-3.864 8.583-8.631 0-4.767-3.84-8.631-8.583-8.631zm0 14.169c-2.859 0-5.174-2.48-5.174-5.538 0-3.058 2.315-5.538 5.174-5.538 2.859 0 5.174 2.48 5.174 5.538 0 3.058-2.315 5.538-5.174 5.538z"></path>
</svg>
