<svg width="80" height="80" viewBox="0 0 80 80" fill="none" xmlns="http://www.w3.org/2000/svg">
  <!-- Large leaf icon for preloader -->
  <path d="M40 4 C40 4, 16 12, 12 36 C12 36, 24 24, 40 28 C40 28, 28 40, 24 60 C24 60, 40 48, 48 32 C48 32, 56 48, 52 68 C52 68, 68 52, 64 32 C64 32, 76 40, 72 60 C72 60, 84 36, 68 16 C68 16, 52 8, 40 4 Z" fill="#74aa4c"/>
  <path d="M40 68 C40 68, 42 52, 48 32" stroke="#5a8a38" stroke-width="2.5" stroke-linecap="round" fill="none"/>
  <path d="M12 36 C12 36, 4 28, 8 16 C8 16, 20 20, 16 36 Z" fill="#5a8a38" opacity="0.7"/>
</svg>
