<svg width="160" height="48" viewBox="0 0 160 48" fill="none" xmlns="http://www.w3.org/2000/svg">
  <g>
    <path d="M22 6 C22 6, 10 10, 8 22 C8 22, 14 16, 22 18 C22 18, 16 24, 14 34 C14 34, 22 28, 26 20 C26 20, 30 28, 28 38 C28 38, 36 30, 34 20 C34 20, 40 24, 38 34 C38 34, 44 22, 36 12 C36 12, 28 8, 22 6 Z" fill="#74aa4c"/>
    <path d="M22 38 C22 38, 23 30, 26 20" stroke="#5a8a38" stroke-width="1.5" stroke-linecap="round" fill="none"/>
    <path d="M8 22 C8 22, 4 18, 6 12 C6 12, 12 14, 10 22 Z" fill="#5a8a38" opacity="0.7"/>
  </g>
  <text x="50" y="28" font-family="Arial, Helvetica, sans-serif" font-size="20" font-weight="700" fill="#74aa4c" letter-spacing="0.5">Serravit</text>
  <text x="51" y="40" font-family="Arial, Helvetica, sans-serif" font-size="8" font-weight="400" fill="#5a8a38" letter-spacing="0.8">Doğal Sağlık Ürünleri</text>
</svg>
